PathFileType	4	(X/Y/Z)	70_2_34_p0_0-274.trc
DataRate	CameraRate	NumFrames	NumMarkers	Units	OrigDataRate	OrigDataStartFrame	OrigNumFrames
51.0	51.0	7	27	m	51.0	68	275
Frame#	Time	RHip			RKnee			RAnkle			RBigToe			RSmallToe			RHeel			LHip			LKnee			LAnkle			LBigToe			LSmallToe			LHeel			Neck			Head			Nose			RShoulder			RElbow			RWrist			RThumb			RIndex			RPinky			LShoulder			LElbow			LWrist			LThumb			LIndex			LPinky			
		X1	Y1	Z1	X2	Y2	Z2	X3	Y3	Z3	X4	Y4	Z4	X5	Y5	Z5	X6	Y6	Z6	X7	Y7	Z7	X8	Y8	Z8	X9	Y9	Z9	X10	Y10	Z10	X11	Y11	Z11	X12	Y12	Z12	X13	Y13	Z13	X14	Y14	Z14	X15	Y15	Z15	X16	Y16	Z16	X17	Y17	Z17	X18	Y18	Z18	X19	Y19	Z19	X20	Y20	Z20	X21	Y21	Z21	X22	Y22	Z22	X23	Y23	Z23	X24	Y24	Z24	X25	Y25	Z25	X26	Y26	Z26	X27	Y27	Z27	
68	1.3333333333333333	0.36767276560506057	0.5015306293360108	0.07139329608352163	0.3616988367012082	0.68291136612801	0.48160068268755424	0.3744745741513541	0.8123768030442186	0.8988491395097492	0.3215155819793125	0.6412521135951796	1.002929660486032	0.39200126998492685	0.6425763828060035	0.982179701558657	0.3582110056577589	0.9387097911152491	0.9912116834682604	0.12955911112960958	0.5909613323432144	0.0724924669892913	0.15913642218176424	0.7010518725584899	0.492764634074322	0.1716020475064275	0.824088455787154	0.8939943452155134	0.17659456339349508	0.6716020128624866	0.9949758099850446	0.11917713983075127	0.7009007389949937	0.970583915563037	0.19780701364808265	0.89503583305333	0.9348802592374931	0.2467046535382174	0.4071349032312362	-0.551221127780405	0.22195978377071804	0.29997867529628064	-0.797387632136413	0.21813867296996636	0.2640337856796115	-0.631846323625756	0.42945315246802496	0.440185025737237	-0.4735633062109379	0.5042330094446815	0.47925982202361533	-0.18285755446753366	0.5052933807141196	0.4872637645564049	0.10618070244449013	0.4528856418206205	0.509530150797776	0.2223346103934816	0.4766276385552659	0.5234783783910895	0.24630670478689337	0.49679988856998175	0.5164581576037621	0.23403182846629408	0.08138950454451033	0.5084129983962791	-0.4849662059351292	0.012649737768477913	0.5665801544925333	-0.21406397876142355	0.019184157509102514	0.5355503229331557	0.08496852153379172	0.054901387905664845	0.5163202768662474	0.1927845519653186	0.033927695777452894	0.47799468891400315	0.2156877470135463	-0.001241910790046967	0.5327011153718098	0.2177370784663731
69	1.3529411764705883	0.36760616152715175	0.5013776591425178	0.071325272197871	0.3617830660842918	0.6828949631272547	0.48133056942391494	0.3724225276669712	0.8118522116705776	0.8985157809288001	0.3214669597228334	0.6407681842660001	1.0028177434361671	0.3920213285877248	0.6423817763584937	0.9821806001351923	0.35834458596918833	0.9389241575569669	0.9912256086448455	0.12950155913393552	0.5908919384251651	0.07234710742825023	0.1590418966935431	0.7004889917136479	0.4928256858917427	0.17160030515392663	0.8240742296030181	0.8940002876766547	0.17665498263887938	0.671734438922116	0.9950010324023524	0.11847782543829412	0.7029538195194668	0.9745034628552844	0.19799455368127533	0.8952672102651843	0.9348515520506344	0.24683346091582473	0.40700412095829036	-0.5513151729167125	0.2326844848988785	0.2989043003579961	-0.7942275752564444	0.2225583757227708	0.2741603128705339	-0.6336626571184426	0.43103397396511434	0.42631884769073664	-0.47195851234226366	0.5043443708645748	0.4794880356572971	-0.1830499269801654	0.5112620860747089	0.4987661156792232	0.10698600582354051	0.4527842753515142	0.5096277743132671	0.22231855101806985	0.47100313463890786	0.5215895297850129	0.2426167021700594	0.49526945850915655	0.5305500428822043	0.23592714718316585	0.08148212070290659	0.5082271321104814	-0.48510580173054757	0.012912726081410902	0.5658355855550156	-0.21756997503424144	0.011947364824474489	0.5609803783770045	0.07966743370064182	0.046827902485419334	0.5305033664395781	0.1978344706726768	0.02952312498567577	0.49133627011574954	0.2174629220186649	-0.008739467909497976	0.5620021949286761	0.2209224533595003
70	1.3725490196078431	0.3677249645627904	0.5015002701357361	0.07127377426179818	0.3618011423450454	0.6826622724799547	0.48132456494919484	0.3737808710554736	0.814345948415364	0.9036795926764511	0.3201391131264324	0.6387607636932886	0.9980466914265116	0.39214183795204	0.6428256446954097	0.9822195099930346	0.3583236560418146	0.9387188623066786	0.9911759565595192	0.12965528811168975	0.5908638327156515	0.07239988920874678	0.1623753997072285	0.684983605285603	0.4896803060181106	0.17164683419569904	0.8241119371439548	0.8939611467891087	0.17663179825483316	0.6718900738518858	0.994984022331665	0.11862720959714872	0.7026729242791453	0.974219801138631	0.19798593510495036	0.8948538457968619	0.9346917767671852	0.24682740106560547	0.4069825965948656	-0.5513258384377978	0.23288738676041976	0.29870082456170965	-0.7941243831355027	0.22483762815148992	0.2615371029451234	-0.6315464737656368	0.4362452862133378	0.4376613616834048	-0.47344302397364035	0.5053674893329791	0.46545560560699184	-0.1790187112012399	0.5054674255094189	0.4871951959359732	0.10621169628189155	0.45273777994618847	0.509329995116772	0.22238974364397354	0.4718535667228689	0.523088761854069	0.24630650619744343	0.4952838459112394	0.5312825195397664	0.23583065761068947	0.08190708032109463	0.5097938062594201	-0.4818799058962152	0.013364161709947836	0.5675606183864924	-0.21386195768971636	0.01140280558520804	0.5623921022597039	0.08280802918409257	0.046284350938918875	0.5309780545916758	0.1942148311504813	0.02117664463213954	0.47762288953997656	0.21583996060483562	-0.009151574709774292	0.5635599840399342	0.22104739591166295
71	1.392156862745098	0.3677568587816223	0.5012358980148529	0.07118732328982162	0.36204424534770324	0.6823982956659922	0.48492983108469545	0.3738227601316399	0.814442887520932	0.9038528260586292	0.32138837249643964	0.6407335051873639	1.0028357968310488	0.3918852512908604	0.642433399257864	0.9821349712751963	0.3583708339132822	0.9387914496590808	0.9913000457758864	0.13315683420937302	0.5751462207764508	0.06447427882316063	0.16245344303248427	0.6845062945762701	0.4897746444471209	0.1716875284264622	0.8241525124361249	0.8940329372742767	0.17654265546083392	0.6716561504109747	0.9949276993643711	0.11860796611397921	0.7024444378885673	0.9741750637129456	0.19945644891104083	0.8966696881548253	0.9434016707955298	0.24690376501131805	0.4069992736044533	-0.5513685474510073	0.23311034516639947	0.29879134032052335	-0.7942598892284569	0.23129098637827375	0.25878753594614773	-0.6314593836841633	0.4405186520538008	0.43763372263839917	-0.47052856903903145	0.5055674487293864	0.46560209406399466	-0.17902452659117424	0.51163829110171	0.49892607242771664	0.10681857046530506	0.45397972573299394	0.49370124830318324	0.22032805487726062	0.47310456117733357	0.5061459908506288	0.24062601684403542	0.49948028344133005	0.5295879321200244	0.23211750976072706	0.08165639755217537	0.5083300174005335	-0.4852390175171107	0.013385359419525159	0.5674885363922845	-0.21401505538739984	0.008431247300322086	0.5752300256243016	0.08048470413290397	0.04561896389856649	0.5289407596542661	0.1939043186088951	0.020970072439738103	0.4770848261810393	0.21555697495575107	-0.014316575589706566	0.5624794763526489	0.2170917930475649
72	1.411764705882353	0.3737091065414765	0.5148367259979488	0.07189740385031708	0.3671218913312265	0.6850439032230994	0.48596766713584366	0.3738155290286914	0.8142797960354251	0.9037785869192255	0.32155316954016977	0.6411107687511697	1.0029080578083378	0.3920404384327308	0.6429091246693831	0.9821063867461999	0.3584240990717368	0.9389962852083878	0.9911723230978983	0.13759029130446218	0.5894598832731526	0.06850500009980998	0.15922092866330323	0.700707064852052	0.4927475624346897	0.17174638328556838	0.824311945804655	0.8940575058142859	0.176472660118309	0.6715652978526799	0.9949096462685575	0.11854328970768645	0.702379734871436	0.9741456579219737	0.19549184504692485	0.8871584606404629	0.9397362033422175	0.24689945291214524	0.4069594413160633	-0.5510753381950125	0.23314458155763665	0.29872760478081634	-0.7943165566595572	0.22725559918560925	0.24860335491957097	-0.6293812694221864	0.4363737126503369	0.4376915349888099	-0.4733710302871892	0.5045338899432608	0.47937461974615164	-0.18301195827465308	0.5115640150353786	0.49922510182410446	0.10646838920997403	0.4525124683117624	0.5067187343618892	0.21893139389219904	0.4665803222065016	0.49260695492936396	0.2353222089091984	0.4917996914977379	0.5305697801593948	0.22896295486870047	0.0817431640399448	0.5085082188358916	-0.4851831585621919	0.017151015567132402	0.5668022074196796	-0.21800074087926194	0.008305990523125742	0.5756518690165774	0.08023471210703148	0.045596530811182395	0.5284838538496666	0.1973239911581365	0.014079863411011516	0.4775427577750659	0.2153577833111467	-0.016336919870109386	0.5602023883987917	0.2125672883082106
73	1.4313725490196079	0.3728110321851914	0.51339810259392	0.06793804621418258	0.36207678224684164	0.6821750266583416	0.4847604302653889	0.3738959059498524	0.8143781213848941	0.9038897573366969	0.3215086473138808	0.641157718822427	1.002939449023258	0.39120757246400323	0.6444297173550063	0.9868544562032853	0.3584590084746603	0.9390947512809398	0.9912829594923993	0.14171024265550766	0.5898220210050503	0.06830346711783848	0.16654346676039103	0.6856040567545717	0.4895025546265475	0.17170244361518375	0.824285649091253	0.8941262524961947	0.1764302388968242	0.6716676805273539	0.994938619833609	0.1185828423100441	0.7018503981721536	0.9739467867501073	0.19912886789566628	0.8980363639124054	0.9396958346180265	0.25169831058312886	0.41820575251074493	-0.5529710668142901	0.23570889545338333	0.28663611562586583	-0.7914926775311325	0.23795035334784057	0.24750822399993877	-0.6260269104341026	0.43645376968977984	0.4377701345774223	-0.47338939821244674	0.5040980332374744	0.4793138257978415	-0.18677556301418277	0.5113800505828937	0.49910836464166686	0.10652859202821893	0.45322480587193464	0.4925309408217784	0.220129790588396	0.4664609228670151	0.49207062248362154	0.23543609374737784	0.489962411316948	0.5448467007627237	0.23079426330153557	0.08465639593451711	0.4949156317717109	-0.4838691503028774	0.012911893298306882	0.5659041943526993	-0.21786727077823104	0.008137584283057027	0.5756477367825019	0.08025842674324539	0.04159954803006178	0.5274650648420457	0.19376599023806254	0.013773566049787378	0.476786511990651	0.2150822732218811	-0.016126952407069624	0.5595515583009076	0.21247092601234943
74	1.4509803921568627	0.3728662550790103	0.5131979470869303	0.06805871559636485	0.36597488316451676	0.6832027516534097	0.48127751829711213	0.37390821086858034	0.8144314432412375	0.9039391482755357	0.3156330946083567	0.6271058087043794	0.998106889848324	0.390889396850017	0.6436350258531197	0.9868690908442315	0.3584222030487094	0.9389351757316062	0.9913357573871359	0.1417885627873268	0.5895513485699897	0.06834113706020936	0.16664966084486366	0.685407637417132	0.4895228757773162	0.1717246530190248	0.8244638512397577	0.8942404909089529	0.17645171324846312	0.671644190809562	0.9949438574772584	0.1185800706492434	0.7021164486511134	0.9740729460126343	0.19867403518113616	0.8991757156705893	0.9494855363744263	0.25413416142479944	0.40548647112416353	-0.5511542685354233	0.24187310103848964	0.27440641965846724	-0.7888185189146235	0.23813256891881923	0.2480263623462901	-0.6267163036557882	0.4380413633290322	0.4245830038043716	-0.4688866816023495	0.5051877867440837	0.4656409943686283	-0.1827708404010274	0.511260436201791	0.49891319470812023	0.10681038286545795	0.44660625188731706	0.49471807647590804	0.22097966923912224	0.45957101966243297	0.4963063231422558	0.23985422346704352	0.4911270229157318	0.5320679373111513	0.232509162173812	0.0847296996484662	0.49490904273368524	-0.48402793146378353	0.01711234634317331	0.5670971841721775	-0.2183044952445352	0.004137889775564514	0.5621130141279649	0.07947715769160119	0.03666629201767168	0.5150602396078043	0.18790687342114448	0.013188386552888162	0.47620200737717505	0.21459222034495415	-0.015402460547504862	0.5590912908321174	0.21590972420439986
